<svg width="21" height="57" viewBox="0 0 21 57" fill="none" xmlns="http://www.w3.org/2000/svg">
<line x1="20.5" y1="10" x2="20.5" y2="47" stroke="black"/>
<mask id="mask0_102_203" style="mask-type:alpha" maskUnits="userSpaceOnUse" x="0" y="0" width="20" height="57">
<rect width="20" height="57" fill="#D9D9D9"/>
</mask>
<g mask="url(#mask0_102_203)">
<path d="M14.78 20.84C13.5667 20.3733 12.42 20.14 11.34 20.14C10.2733 20.14 9.44 20.3667 8.84 20.82C8.24 21.2733 7.94 21.9 7.94 22.7C7.94 23.6733 8.44667 24.4267 9.46 24.96C9.91333 25.1867 10.4067 25.4 10.94 25.6C11.4867 25.7867 12.0333 26 12.58 26.24C13.1267 26.48 13.6267 26.7533 14.08 27.06C14.5333 27.3667 14.9 27.7933 15.18 28.34C15.46 28.8733 15.6 29.56 15.6 30.4C15.6 31.2267 15.3667 31.9333 14.9 32.52C14.4333 33.1067 13.8667 33.5067 13.2 33.72C12.5467 33.92 11.78 34.02 10.9 34.02C9.26 34.02 7.86 33.6133 6.7 32.8L6.8 32.64C7.24 32.9867 7.80667 33.2733 8.5 33.5C9.20667 33.7133 9.92667 33.82 10.66 33.82C11.74 33.82 12.66 33.5733 13.42 33.08C14.1933 32.5733 14.58 31.8333 14.58 30.86C14.58 29.7933 14.0733 28.96 13.06 28.36C12.6067 28.0933 12.1067 27.8467 11.56 27.62C11.0267 27.3933 10.4867 27.16 9.94 26.92C9.39333 26.6667 8.89333 26.3867 8.44 26.08C7.42667 25.4133 6.92 24.4667 6.92 23.24C6.92 22.2667 7.24667 21.48 7.9 20.88C8.55333 20.2667 9.53333 19.96 10.84 19.96C12.16 19.96 13.5 20.1867 14.86 20.64L14.78 20.84ZM34.273 34.08C31.7796 34.08 29.933 33.3733 28.733 31.96C28.3063 31.4533 27.9596 30.78 27.693 29.94C27.4263 29.1 27.293 28.08 27.293 26.88C27.293 25.68 27.4863 24.6067 27.873 23.66C28.273 22.7 28.813 21.96 29.493 21.44C30.813 20.4667 32.4063 19.98 34.273 19.98C34.8063 19.98 35.3263 20.0267 35.833 20.12C36.3396 20.2 36.7196 20.2867 36.973 20.38L37.333 20.52L37.273 20.72C36.3663 20.36 35.3663 20.18 34.273 20.18C32.8596 20.18 31.6796 20.64 30.733 21.56C30.013 22.24 29.5063 23.24 29.213 24.56C29.0396 25.3067 28.953 26.22 28.953 27.3C28.953 28.38 29.1063 29.38 29.413 30.3C29.7196 31.2067 30.0663 31.88 30.453 32.32C30.853 32.76 31.333 33.1133 31.893 33.38C32.453 33.6333 32.8996 33.78 33.233 33.82C33.5663 33.86 33.9663 33.88 34.433 33.88C34.913 33.88 35.453 33.8333 36.053 33.74C36.653 33.6467 37.1063 33.56 37.413 33.48L37.873 33.34L37.933 33.54C36.9196 33.9 35.6996 34.08 34.273 34.08ZM51.2967 34H49.6367V20H51.2967V26.44H57.7967V20H59.4567V34H57.7967V26.64H51.2967V34ZM71.2578 27.34C71.2578 24.9133 71.8445 23.0733 73.0178 21.82C74.2045 20.5533 75.7245 19.92 77.5778 19.92C79.4311 19.92 80.9045 20.4667 81.9978 21.56C83.1045 22.6533 83.6578 24.4 83.6578 26.8C83.6578 29.2 83.0711 31.0133 81.8978 32.24C80.7245 33.4667 79.1578 34.08 77.1978 34.08C75.5045 34.08 74.1178 33.5933 73.0378 32.62C72.4778 32.1133 72.0378 31.4133 71.7178 30.52C71.4111 29.6133 71.2578 28.5533 71.2578 27.34ZM77.5178 20.12C76.1711 20.12 75.0645 20.72 74.1978 21.92C73.3445 23.12 72.9178 24.88 72.9178 27.2C72.9178 29.52 73.3245 31.2133 74.1378 32.28C74.9511 33.3467 76.0311 33.88 77.3778 33.88C78.7378 33.88 79.8445 33.28 80.6978 32.08C81.5645 30.8667 81.9978 29.1133 81.9978 26.82C81.9978 24.5133 81.5845 22.82 80.7578 21.74C79.9445 20.66 78.8645 20.12 77.5178 20.12ZM103.457 34H95.857V20H97.517V33.8H103.457V34ZM114.906 34H114.666L120.646 20L120.866 19.9L125.906 34H124.206L122.646 29.6H116.806L114.906 34ZM120.026 22.16L116.886 29.4H122.586L120.026 22.16ZM137.713 20.16C139.259 20.0533 140.626 20 141.813 20C145.106 20 146.753 21.1 146.753 23.3C146.753 24.2333 146.526 25.0667 146.073 25.8C145.619 26.5333 144.839 27.02 143.733 27.26L147.733 34H145.873L141.953 27.38H139.373V34H137.713V20.16ZM141.813 20.2C141.039 20.2 140.226 20.2467 139.373 20.34V27.18H142.333C144.213 27.1 145.153 25.82 145.153 23.34C145.153 22.3267 144.873 21.5533 144.313 21.02C143.753 20.4733 142.919 20.2 141.813 20.2Z" fill="black"/>
<path d="M14.78 20.84L14.421 21.7733L15.342 22.1276L15.7085 21.2114L14.78 20.84ZM8.84 20.82L8.23717 20.0221L8.23717 20.0221L8.84 20.82ZM9.46 24.96L8.99425 25.8449L9.00347 25.8498L9.01279 25.8544L9.46 24.96ZM10.94 25.6L10.5889 26.5363L10.6028 26.5415L10.6169 26.5463L10.94 25.6ZM12.58 26.24L12.982 25.3244L12.58 26.24ZM15.18 28.34L14.2899 28.7959L14.2946 28.8048L15.18 28.34ZM14.9 32.52L15.6826 33.1425L14.9 32.52ZM13.2 33.72L13.4927 34.6763L13.5048 34.6724L13.2 33.72ZM6.7 32.8L5.852 32.27L5.34932 33.0743L6.12591 33.6188L6.7 32.8ZM6.8 32.64L7.41887 31.8545L6.54299 31.1644L5.952 32.11L6.8 32.64ZM8.5 33.5L8.18926 34.4505L8.20009 34.454L8.211 34.4573L8.5 33.5ZM13.42 33.08L13.9645 33.9188L13.968 33.9165L13.42 33.08ZM13.06 28.36L13.5695 27.4995L13.567 27.4981L13.06 28.36ZM11.56 27.62L11.1688 28.5404L11.177 28.5437L11.56 27.62ZM9.94 26.92L9.51954 27.8273L9.52873 27.8316L9.53801 27.8356L9.94 26.92ZM8.44 26.08L9.00036 25.2516L8.98962 25.2446L8.44 26.08ZM7.9 20.88L8.57645 21.6166L8.58444 21.6091L7.9 20.88ZM14.86 20.64L15.7885 21.0114L16.1824 20.0267L15.1762 19.6913L14.86 20.64ZM15.139 19.9067C13.8338 19.4047 12.5649 19.14 11.34 19.14V21.14C12.2751 21.14 13.2995 21.342 14.421 21.7733L15.139 19.9067ZM11.34 19.14C10.1442 19.14 9.07014 19.3928 8.23717 20.0221L9.44283 21.6179C9.80986 21.3406 10.4024 21.14 11.34 21.14V19.14ZM8.23717 20.0221C7.36902 20.6781 6.94 21.6098 6.94 22.7H8.94C8.94 22.1902 9.11098 21.8686 9.44283 21.6179L8.23717 20.0221ZM6.94 22.7C6.94 24.1177 7.72249 25.1756 8.99425 25.8449L9.92575 24.0751C9.17084 23.6778 8.94 23.229 8.94 22.7H6.94ZM9.01279 25.8544C9.50094 26.0985 10.0267 26.3255 10.5889 26.5363L11.2911 24.6637C10.7866 24.4745 10.3257 24.2748 9.90721 24.0656L9.01279 25.8544ZM10.6169 26.5463C11.1359 26.7236 11.6563 26.9266 12.178 27.1556L12.982 25.3244C12.4103 25.0734 11.8374 24.8497 11.2631 24.6536L10.6169 26.5463ZM12.178 27.1556C12.6743 27.3735 13.1207 27.6184 13.5197 27.8883L14.6403 26.2317C14.1327 25.8883 13.579 25.5865 12.982 25.3244L12.178 27.1556ZM13.5197 27.8883C13.8171 28.0895 14.0772 28.3805 14.29 28.7959L16.07 27.8841C15.7228 27.2062 15.2495 26.6438 14.6403 26.2317L13.5197 27.8883ZM14.2946 28.8048C14.4756 29.1495 14.6 29.6616 14.6 30.4H16.6C16.6 29.4584 16.4444 28.5972 16.0654 27.8752L14.2946 28.8048ZM14.6 30.4C14.6 31.0252 14.4287 31.5062 14.1174 31.8975L15.6826 33.1425C16.3047 32.3605 16.6 31.4281 16.6 30.4H14.6ZM14.1174 31.8975C13.7647 32.3409 13.3599 32.6189 12.8952 32.7676L13.5048 34.6724C14.3734 34.3945 15.102 33.8725 15.6826 33.1425L14.1174 31.8975ZM12.9073 32.7638C12.3716 32.9278 11.7078 33.02 10.9 33.02V35.02C11.8522 35.02 12.7218 34.9122 13.4927 34.6762L12.9073 32.7638ZM10.9 33.02C9.43203 33.02 8.24046 32.6588 7.27409 31.9812L6.12591 33.6188C7.47954 34.5679 9.08797 35.02 10.9 35.02V33.02ZM7.548 33.33L7.648 33.17L5.952 32.11L5.852 32.27L7.548 33.33ZM6.18113 33.4255C6.73651 33.8631 7.41628 34.1978 8.18926 34.4505L8.81074 32.5495C8.19706 32.3489 7.74349 32.1103 7.41887 31.8545L6.18113 33.4255ZM8.211 34.4573C9.01076 34.6988 9.82811 34.82 10.66 34.82V32.82C10.0252 32.82 9.40257 32.7279 8.789 32.5427L8.211 34.4573ZM10.66 34.82C11.8956 34.82 13.0135 34.5361 13.9645 33.9188L12.8755 32.2412C12.3065 32.6106 11.5844 32.82 10.66 32.82V34.82ZM13.968 33.9165C15.0408 33.2136 15.58 32.1492 15.58 30.86H13.58C13.58 31.5175 13.3459 31.9331 12.872 32.2435L13.968 33.9165ZM15.58 30.86C15.58 29.3978 14.8487 28.257 13.5695 27.4995L12.5505 29.2205C13.2979 29.663 13.58 30.1888 13.58 30.86H15.58ZM13.567 27.4981C13.0693 27.2053 12.5272 26.9385 11.943 26.6963L11.177 28.5437C11.6861 28.7549 12.1441 28.9814 12.553 29.2219L13.567 27.4981ZM11.9511 26.6997C11.4215 26.4746 10.8852 26.2428 10.342 26.0044L9.53801 27.8356C10.0882 28.0772 10.6318 28.3121 11.1689 28.5403L11.9511 26.6997ZM10.3605 26.0127C9.85765 25.7797 9.40504 25.5255 9.00031 25.2517L7.87969 26.9083C8.38163 27.2478 8.92902 27.5537 9.51954 27.8273L10.3605 26.0127ZM8.98962 25.2446C8.26123 24.7654 7.92 24.1348 7.92 23.24H5.92C5.92 24.7986 6.5921 26.0613 7.89038 26.9154L8.98962 25.2446ZM7.92 23.24C7.92 22.5163 8.15064 22.0075 8.57641 21.6165L7.2236 20.1435C6.3427 20.9525 5.92 22.017 5.92 23.24H7.92ZM8.58444 21.6091C8.98261 21.2353 9.6723 20.96 10.84 20.96V18.96C9.39437 18.96 8.12406 19.2981 7.21556 20.1509L8.58444 21.6091ZM10.84 20.96C12.0437 20.96 13.277 21.1664 14.5438 21.5887L15.1762 19.6913C13.723 19.2069 12.2763 18.96 10.84 18.96V20.96ZM13.9315 20.2686L13.8515 20.4686L15.7085 21.2114L15.7885 21.0114L13.9315 20.2686ZM28.733 31.96L27.9681 32.6041L27.9707 32.6072L28.733 31.96ZM27.693 29.94L28.6461 29.6374L27.693 29.94ZM27.873 23.66L26.9499 23.2754L26.9472 23.2819L27.873 23.66ZM29.493 21.44L28.8995 20.6351L28.8925 20.6403L28.8855 20.6456L29.493 21.44ZM35.833 20.12L35.6518 21.1035L35.6644 21.1058L35.677 21.1078L35.833 20.12ZM36.973 20.38L37.3354 19.448L37.3271 19.4448L37.3187 19.4417L36.973 20.38ZM37.333 20.52L38.2908 20.8073L38.5562 19.9227L37.6954 19.588L37.333 20.52ZM37.273 20.72L36.9039 21.6494L37.9174 22.0518L38.2308 21.0073L37.273 20.72ZM30.733 21.56L31.4196 22.287L31.4248 22.2821L31.4299 22.2771L30.733 21.56ZM29.213 24.56L30.1871 24.7861L30.1892 24.7769L29.213 24.56ZM29.413 30.3L28.4643 30.6162L28.4657 30.6204L29.413 30.3ZM30.453 32.32L29.7018 32.9801L29.7074 32.9864L29.713 32.9927L30.453 32.32ZM31.893 33.38L31.463 34.2829L31.4719 34.2871L31.4808 34.2911L31.893 33.38ZM33.233 33.82L33.1138 34.8129L33.233 33.82ZM36.053 33.74L36.2067 34.7281L36.053 33.74ZM37.413 33.48L37.6654 34.4476L37.6849 34.4425L37.7041 34.4367L37.413 33.48ZM37.873 33.34L38.8308 33.0527L38.5423 32.091L37.5818 32.3833L37.873 33.34ZM37.933 33.54L38.2677 34.4823L39.1641 34.1638L38.8908 33.2527L37.933 33.54ZM34.273 33.08C31.9661 33.08 30.4454 32.4319 29.4953 31.3128L27.9707 32.6072C29.4205 34.3148 31.5931 35.08 34.273 35.08V33.08ZM29.4979 31.3159C29.1787 30.9368 28.8855 30.3914 28.6461 29.6374L26.7398 30.2426C27.0338 31.1686 27.4339 31.9698 27.9681 32.6041L29.4979 31.3159ZM28.6461 29.6374C28.4194 28.9234 28.293 28.0118 28.293 26.88H26.293C26.293 28.1482 26.4332 29.2766 26.7398 30.2426L28.6461 29.6374ZM28.293 26.88C28.293 25.7875 28.4688 24.8458 28.7987 24.0381L26.9472 23.2819C26.5038 24.3675 26.293 25.5725 26.293 26.88H28.293ZM28.796 24.0446C29.143 23.2118 29.5868 22.6271 30.1004 22.2344L28.8855 20.6456C28.0391 21.2929 27.4029 22.1882 26.9499 23.2754L28.796 24.0446ZM30.0864 22.2449C31.2113 21.4154 32.5891 20.98 34.273 20.98V18.98C32.2235 18.98 30.4146 19.5179 28.8995 20.6351L30.0864 22.2449ZM34.273 20.98C34.7477 20.98 35.207 21.0215 35.6518 21.1035L36.0141 19.1365C35.4456 19.0318 34.8649 18.98 34.273 18.98V20.98ZM35.677 21.1078C36.1657 21.1849 36.4679 21.2596 36.6273 21.3183L37.3187 19.4417C36.9714 19.3137 36.5136 19.2151 35.9889 19.1322L35.677 21.1078ZM36.6105 21.312L36.9705 21.452L37.6954 19.588L37.3354 19.448L36.6105 21.312ZM36.3751 20.2326L36.3151 20.4326L38.2308 21.0073L38.2908 20.8073L36.3751 20.2326ZM37.642 19.7906C36.6045 19.3786 35.4775 19.18 34.273 19.18V21.18C35.2551 21.18 36.1281 21.3413 36.9039 21.6494L37.642 19.7906ZM34.273 19.18C32.6196 19.18 31.1834 19.7278 30.036 20.8429L31.4299 22.2771C32.1759 21.5522 33.0996 21.18 34.273 21.18V19.18ZM30.0463 20.833C29.1367 21.6921 28.5581 22.8973 28.2368 24.3431L30.1892 24.7769C30.4545 23.5827 30.8892 22.7879 31.4196 22.287L30.0463 20.833ZM28.2389 24.3339C28.0429 25.1779 27.953 26.1722 27.953 27.3H29.953C29.953 26.2678 30.0363 25.4354 30.1871 24.7861L28.2389 24.3339ZM27.953 27.3C27.953 28.4754 28.12 29.5834 28.4643 30.6162L30.3617 29.9838C30.0926 29.1766 29.953 28.2846 29.953 27.3H27.953ZM28.4657 30.6204C28.7912 31.5828 29.19 32.3977 29.7018 32.9801L31.2041 31.6599C30.9426 31.3623 30.6481 30.8306 30.3603 29.9796L28.4657 30.6204ZM29.713 32.9927C30.2042 33.5329 30.7909 33.9628 31.463 34.2829L32.3229 32.4771C31.8751 32.2639 31.5018 31.9871 31.1929 31.6473L29.713 32.9927ZM31.4808 34.2911C32.0701 34.5577 32.6276 34.7545 33.1138 34.8129L33.3521 32.8271C33.1716 32.8055 32.8358 32.709 32.3051 32.4689L31.4808 34.2911ZM33.1138 34.8129C33.4986 34.859 33.9406 34.88 34.433 34.88V32.88C33.992 32.88 33.634 32.861 33.3521 32.8271L33.1138 34.8129ZM34.433 34.88C34.9758 34.88 35.5685 34.8274 36.2067 34.7281L35.8993 32.7519C35.3375 32.8393 34.8501 32.88 34.433 32.88V34.88ZM36.2067 34.7281C36.8157 34.6334 37.3089 34.5406 37.6654 34.4476L37.1605 32.5124C36.9037 32.5794 36.4902 32.66 35.8993 32.7519L36.2067 34.7281ZM37.7041 34.4367L38.1641 34.2967L37.5818 32.3833L37.1218 32.5233L37.7041 34.4367ZM36.9151 33.6273L36.9751 33.8273L38.8908 33.2527L38.8308 33.0527L36.9151 33.6273ZM37.5982 32.5977C36.721 32.9093 35.6206 33.08 34.273 33.08V35.08C35.7787 35.08 37.1182 34.8907 38.2677 34.4823L37.5982 32.5977ZM51.2967 34V35H52.2967V34H51.2967ZM49.6367 34H48.6367V35H49.6367V34ZM49.6367 20V19H48.6367V20H49.6367ZM51.2967 20H52.2967V19H51.2967V20ZM51.2967 26.44H50.2967V27.44H51.2967V26.44ZM57.7967 26.44V27.44H58.7967V26.44H57.7967ZM57.7967 20V19H56.7967V20H57.7967ZM59.4567 20H60.4567V19H59.4567V20ZM59.4567 34V35H60.4567V34H59.4567ZM57.7967 34H56.7967V35H57.7967V34ZM57.7967 26.64H58.7967V25.64H57.7967V26.64ZM51.2967 26.64V25.64H50.2967V26.64H51.2967ZM51.2967 33H49.6367V35H51.2967V33ZM50.6367 34V20H48.6367V34H50.6367ZM49.6367 21H51.2967V19H49.6367V21ZM50.2967 20V26.44H52.2967V20H50.2967ZM51.2967 27.44H57.7967V25.44H51.2967V27.44ZM58.7967 26.44V20H56.7967V26.44H58.7967ZM57.7967 21H59.4567V19H57.7967V21ZM58.4567 20V34H60.4567V20H58.4567ZM59.4567 33H57.7967V35H59.4567V33ZM58.7967 34V26.64H56.7967V34H58.7967ZM57.7967 25.64H51.2967V27.64H57.7967V25.64ZM50.2967 26.64V34H52.2967V26.64H50.2967ZM73.0178 21.82L72.288 21.1363L72.2878 21.1366L73.0178 21.82ZM81.9978 21.56L81.2907 22.2671L81.295 22.2714L81.9978 21.56ZM81.8978 32.24L81.1752 31.5488L81.8978 32.24ZM73.0378 32.62L72.3669 33.3615L72.3683 33.3628L73.0378 32.62ZM71.7178 30.52L70.7705 30.8404L70.7734 30.8488L70.7764 30.8572L71.7178 30.52ZM74.1978 21.92L73.3871 21.3345L73.3829 21.3405L74.1978 21.92ZM74.1378 32.28L73.3426 32.8863L74.1378 32.28ZM80.6978 32.08L79.8841 31.4988L79.8829 31.5005L80.6978 32.08ZM80.7578 21.74L79.959 22.3416L79.9637 22.3478L80.7578 21.74ZM72.2578 27.34C72.2578 25.0621 72.8085 23.5068 73.7478 22.5034L72.2878 21.1366C70.8805 22.6398 70.2578 24.7646 70.2578 27.34H72.2578ZM73.7476 22.5037C74.7313 21.4536 75.98 20.92 77.5778 20.92V18.92C75.4689 18.92 73.6776 19.653 72.288 21.1363L73.7476 22.5037ZM77.5778 20.92C79.2223 20.92 80.4213 21.3977 81.2907 22.2671L82.7049 20.8529C81.3876 19.5356 79.64 18.92 77.5778 18.92V20.92ZM81.295 22.2714C82.1299 23.0962 82.6578 24.5253 82.6578 26.8H84.6578C84.6578 24.2747 84.079 22.2104 82.7006 20.8486L81.295 22.2714ZM82.6578 26.8C82.6578 29.0495 82.1082 30.5734 81.1752 31.5488L82.6205 32.9312C84.0341 31.4533 84.6578 29.3505 84.6578 26.8H82.6578ZM81.1752 31.5488C80.2201 32.5472 78.9309 33.08 77.1978 33.08V35.08C79.3847 35.08 81.2289 34.3861 82.6205 32.9312L81.1752 31.5488ZM77.1978 33.08C75.7084 33.08 74.5738 32.6581 73.7073 31.8772L72.3683 33.3628C73.6618 34.5286 75.3005 35.08 77.1978 35.08V33.08ZM73.7087 31.8785C73.2982 31.507 72.9377 30.9601 72.6592 30.1828L70.7764 30.8572C71.1379 31.8666 71.6574 32.7196 72.3669 33.3615L73.7087 31.8785ZM72.6651 30.1996C72.4013 29.4195 72.2578 28.4722 72.2578 27.34H70.2578C70.2578 28.6345 70.421 29.8071 70.7705 30.8404L72.6651 30.1996ZM77.5178 19.12C75.8147 19.12 74.4201 19.9042 73.3871 21.3345L75.0085 22.5055C75.7088 21.5358 76.5276 21.12 77.5178 21.12V19.12ZM73.3829 21.3405C72.3579 22.7819 71.9178 24.783 71.9178 27.2H73.9178C73.9178 24.977 74.3311 23.4581 75.0128 22.4995L73.3829 21.3405ZM71.9178 27.2C71.9178 29.5957 72.3299 31.5583 73.3426 32.8863L74.933 31.6737C74.319 30.8684 73.9178 29.4443 73.9178 27.2H71.9178ZM73.3426 32.8863C74.346 34.2022 75.7206 34.88 77.3778 34.88V32.88C76.3417 32.88 75.5563 32.4911 74.933 31.6737L73.3426 32.8863ZM77.3778 34.88C79.0916 34.88 80.49 34.0978 81.5128 32.6595L79.8829 31.5005C79.199 32.4622 78.384 32.88 77.3778 32.88V34.88ZM81.5115 32.6612C82.5487 31.2093 82.9978 29.2168 82.9978 26.82H80.9978C80.9978 29.0099 80.5803 30.5241 79.8841 31.4988L81.5115 32.6612ZM82.9978 26.82C82.9978 24.4321 82.5771 22.4715 81.5519 21.1322L79.9637 22.3478C80.5919 23.1685 80.9978 24.5946 80.9978 26.82H82.9978ZM81.5566 21.1384C80.5552 19.8087 79.18 19.12 77.5178 19.12V21.12C78.549 21.12 79.3337 21.5113 79.959 22.3416L81.5566 21.1384ZM103.457 34V35H104.457V34H103.457ZM95.857 34H94.857V35H95.857V34ZM95.857 20V19H94.857V20H95.857ZM97.517 20H98.517V19H97.517V20ZM97.517 33.8H96.517V34.8H97.517V33.8ZM103.457 33.8H104.457V32.8H103.457V33.8ZM103.457 33H95.857V35H103.457V33ZM96.857 34V20H94.857V34H96.857ZM95.857 21H97.517V19H95.857V21ZM96.517 20V33.8H98.517V20H96.517ZM97.517 34.8H103.457V32.8H97.517V34.8ZM102.457 33.8V34H104.457V33.8H102.457ZM114.906 34V35H115.564L115.824 34.3964L114.906 34ZM114.666 34L113.747 33.6072L113.152 35H114.666V34ZM120.646 20L120.233 19.0896L119.879 19.2502L119.727 19.6072L120.646 20ZM120.866 19.9L121.808 19.5634L121.442 18.5398L120.453 18.9896L120.866 19.9ZM125.906 34V35H127.326L126.848 33.6634L125.906 34ZM124.206 34L123.264 34.3342L123.5 35H124.206V34ZM122.646 29.6L123.589 29.2658L123.353 28.6H122.646V29.6ZM116.806 29.6V28.6H116.149L115.888 29.2036L116.806 29.6ZM120.026 22.16L120.969 21.8266L120.121 19.4283L119.109 21.7621L120.026 22.16ZM116.886 29.4L115.969 29.0021L115.363 30.4H116.886V29.4ZM122.586 29.4V30.4H124.001L123.529 29.0666L122.586 29.4ZM114.906 33H114.666V35H114.906V33ZM115.586 34.3928L121.566 20.3928L119.727 19.6072L113.747 33.6072L115.586 34.3928ZM121.06 20.9104L121.28 20.8104L120.453 18.9896L120.233 19.0896L121.06 20.9104ZM119.925 20.2366L124.965 34.3366L126.848 33.6634L121.808 19.5634L119.925 20.2366ZM125.906 33H124.206V35H125.906V33ZM125.149 33.6658L123.589 29.2658L121.704 29.9342L123.264 34.3342L125.149 33.6658ZM122.646 28.6H116.806V30.6H122.646V28.6ZM115.888 29.2036L113.988 33.6036L115.824 34.3964L117.724 29.9964L115.888 29.2036ZM119.109 21.7621L115.969 29.0021L117.804 29.7979L120.944 22.5579L119.109 21.7621ZM116.886 30.4H122.586V28.4H116.886V30.4ZM123.529 29.0666L120.969 21.8266L119.084 22.4934L121.644 29.7334L123.529 29.0666ZM137.712 20.16L137.644 19.1624L136.712 19.2266V20.16H137.712ZM146.072 25.8L146.923 26.3258V26.3258L146.072 25.8ZM143.732 27.26L143.521 26.2827L142.164 26.5769L142.873 27.7704L143.732 27.26ZM147.732 34V35H149.489L148.592 33.4896L147.732 34ZM145.872 34L145.012 34.5095L145.302 35H145.872V34ZM141.952 27.38L142.813 26.8705L142.523 26.38H141.952V27.38ZM139.372 27.38V26.38H138.372V27.38H139.372ZM139.372 34V35H140.372V34H139.372ZM137.712 34H136.712V35H137.712V34ZM139.372 20.34L139.264 19.3459L138.372 19.4434V20.34H139.372ZM139.372 27.18H138.372V28.18H139.372V27.18ZM142.333 27.18V28.18H142.354L142.375 28.1791L142.333 27.18ZM144.312 21.02L143.614 21.7356L143.623 21.7441L144.312 21.02ZM137.781 21.1576C139.312 21.0521 140.654 21 141.812 21V19C140.597 19 139.207 19.0546 137.644 19.1624L137.781 21.1576ZM141.812 21C143.379 21 144.38 21.2674 144.962 21.6565C145.473 21.998 145.753 22.4904 145.753 23.3H147.753C147.753 21.9096 147.208 20.752 146.073 19.9935C145.009 19.2826 143.539 19 141.812 19V21ZM145.753 23.3C145.753 24.0635 145.57 24.7119 145.222 25.2742L146.923 26.3258C147.482 25.4215 147.753 24.4032 147.753 23.3H145.753ZM145.222 25.2742C144.952 25.7105 144.449 26.0814 143.521 26.2827L143.944 28.2373C145.23 27.9586 146.286 27.3561 146.923 26.3258L145.222 25.2742ZM142.873 27.7704L146.873 34.5104L148.592 33.4896L144.592 26.7496L142.873 27.7704ZM147.732 33H145.872V35H147.732V33ZM146.733 33.4905L142.813 26.8705L141.092 27.8895L145.012 34.5095L146.733 33.4905ZM141.952 26.38H139.372V28.38H141.952V26.38ZM138.372 27.38V34H140.372V27.38H138.372ZM139.372 33H137.712V35H139.372V33ZM138.712 34V20.16H136.712V34H138.712ZM141.812 19.2C140.999 19.2 140.149 19.2491 139.264 19.3459L139.481 21.3341C140.302 21.2443 141.079 21.2 141.812 21.2V19.2ZM138.372 20.34V27.18H140.372V20.34H138.372ZM139.372 28.18H142.333V26.18H139.372V28.18ZM142.375 28.1791C143.556 28.1289 144.57 27.6827 145.254 26.7519C145.903 25.8681 146.152 24.6813 146.152 23.34H144.152C144.152 24.4787 143.932 25.1719 143.641 25.5681C143.385 25.9173 142.989 26.1511 142.29 26.1809L142.375 28.1791ZM146.152 23.34C146.152 22.142 145.817 21.0716 145.002 20.2959L143.623 21.7441C143.928 22.0351 144.152 22.5114 144.152 23.34H146.152ZM145.011 20.3044C144.199 19.5113 143.071 19.2 141.812 19.2V21.2C142.767 21.2 143.306 21.4353 143.614 21.7356L145.011 20.3044Z" fill="black" fill-opacity="0.3"/>
</g>
</svg>
